<?xml version="1.0" encoding="utf-8"?>
<!-- Generator: Adobe Illustrator 21.1.0, SVG Export Plug-In . SVG Version: 6.00 Build 0)  -->
<svg version="1.1" id="Layer_1" xmlns="http://www.w3.org/2000/svg" xmlns:xlink="http://www.w3.org/1999/xlink" x="0px" y="0px"
	 viewBox="0 0 180.7 180.7" style="enable-background:new 0 0 180.7 180.7;" xml:space="preserve">
<style type="text/css">
	.st0{fill:#D5EEF2;}
	.st1{fill:none;stroke:#414042;stroke-width:5;stroke-miterlimit:10;}
	.st2{fill:#414042;}
	.st3{fill:#D5EEF2;stroke:#414042;stroke-width:5;stroke-miterlimit:10;}
	.st4{fill:none;stroke:#414042;stroke-width:4;stroke-miterlimit:10;}
</style>
<circle class="st0" cx="90.4" cy="90.4" r="90.4"/>
<g>
	<path class="st1" d="M90.3,61.9l-32.4,67.8h0c12.7,0,23,10.3,23,23h18.9c0-12.7,10.3-23,23-23L90.3,61.9z"/>
	<line class="st1" x1="90.4" y1="66.7" x2="90.4" y2="120.8"/>
	<circle class="st2" cx="90.3" cy="120.4" r="6.8"/>
</g>
<path class="st1" d="M35.4,98.9C35.4,68.6,60,44,90.3,44s54.9,24.6,54.9,54.9"/>
<rect x="138.5" y="92.7" class="st3" width="13.6" height="13.6"/>
<rect x="28.6" y="92.2" class="st3" width="13.6" height="13.6"/>
<line class="st4" x1="40.2" y1="44" x2="140.5" y2="44"/>
<rect x="83.6" y="37.2" class="st3" width="13.6" height="13.6"/>
<circle class="st2" cx="140.5" cy="44" r="4.8"/>
<circle class="st2" cx="40.2" cy="44" r="4.8"/>
</svg>
