<svg xmlns="http://www.w3.org/2000/svg" width="25" height="25" viewBox="0 0 25 25">
  <metadata><?xpacket begin="﻿" id="W5M0MpCehiHzreSzNTczkc9d"?>
<x:xmpmeta xmlns:x="adobe:ns:meta/" x:xmptk="Adobe XMP Core 5.6-c140 79.160451, 2017/05/06-01:08:21        ">
   <rdf:RDF xmlns:rdf="http://www.w3.org/1999/02/22-rdf-syntax-ns#">
      <rdf:Description rdf:about=""/>
   </rdf:RDF>
</x:xmpmeta>
                                                                                                    
                                                                                                    
                                                                                                    
                                                                                                    
                                                                                                    
                                                                                                    
                                                                                                    
                                                                                                    
                                                                                                    
                                                                                                    
                                                                                                    
                                                                                                    
                                                                                                    
                                                                                                    
                                                                                                    
                                                                                                    
                                                                                                    
                                                                                                    
                                                                                                    
                                                                                                    
                           
<?xpacket end="w"?></metadata>
<defs>
    <style>
      .cls-1 {
        fill: #ce827a;
        fill-rule: evenodd;
      }
    </style>
  </defs>
  <path id="ball" class="cls-1" d="M12.5,25A12.493,12.493,0,1,1,25.015,12.51,12.517,12.517,0,0,1,12.5,25ZM23.055,14.22a15.709,15.709,0,0,0-6.657-.456,46,46,0,0,1,2.076,7.608A10.689,10.689,0,0,0,23.055,14.22ZM16.678,22.35a44.314,44.314,0,0,0-2.28-8.092l-0.07.024c-6.028,2.1-8.192,6.271-8.384,6.664A10.685,10.685,0,0,0,16.678,22.35ZM4.564,19.662A16.949,16.949,0,0,1,13.25,12.62q0.209-.067.421-0.127c-0.268-.606-0.56-1.213-0.866-1.811A39.479,39.479,0,0,1,1.822,12.2c0,0.108-.005.217-0.005,0.326A10.62,10.62,0,0,0,4.564,19.662ZM2.042,10.341a39.918,39.918,0,0,0,9.88-1.3A68.09,68.09,0,0,0,7.96,2.869,10.713,10.713,0,0,0,2.042,10.341ZM10,2.152A56.942,56.942,0,0,1,13.986,8.4a12.064,12.064,0,0,0,5.6-3.855A10.687,10.687,0,0,0,10,2.152ZM20.775,5.778a14.234,14.234,0,0,1-5.968,4.208c0.249,0.508.487,1.025,0.709,1.546q0.118,0.277.23,0.551a25.01,25.01,0,0,1,7.441.343A10.611,10.611,0,0,0,20.775,5.778Z"/>
</svg>
