<svg id="Layer_1" data-name="Layer 1" xmlns="http://www.w3.org/2000/svg" viewBox="0 0 30.5 30.5"><defs><style>.cls-1{fill:#ce827a;}</style></defs><title>linkedin</title><path class="cls-1" d="M53.5-73.25A15.25,15.25,0,0,0,38.25-58,15.25,15.25,0,0,0,53.5-42.75,15.25,15.25,0,0,0,68.75-58,15.25,15.25,0,0,0,53.5-73.25Zm-4,23.35H45.83v-12h3.72ZM47.69-63.51a2.16,2.16,0,0,1-2.16-2.16,2.15,2.15,0,0,1,2.16-2.15,2.16,2.16,0,0,1,2.16,2.15A2.16,2.16,0,0,1,47.69-63.51ZM63.48-49.9H59.76v-5.82c0-1.39,0-3.18-1.93-3.18s-2.23,1.51-2.23,3.08v5.92H51.88v-12h3.57v1.63h0A3.91,3.91,0,0,1,59-62.17c3.77,0,4.46,2.48,4.46,5.7Z" transform="translate(-38.25 73.25)"/></svg>