<?xml version="1.0" encoding="utf-8"?>
<!-- Generator: Adobe Illustrator 21.1.0, SVG Export Plug-In . SVG Version: 6.00 Build 0)  -->
<svg version="1.1" id="Layer_1" xmlns="http://www.w3.org/2000/svg" xmlns:xlink="http://www.w3.org/1999/xlink" x="0px" y="0px"
	 viewBox="0 0 49.4 52.5" style="enable-background:new 0 0 49.4 52.5;" xml:space="preserve">
<style type="text/css">
	.st0{fill:none;}
	.st1{fill:#B57878;}
	.st2{fill:#DDAFAF;}
</style>
<g>
	<path class="st0" d="M24.4,10.4H12v21.7h12.4c6.8,0,12.2-4.4,12.2-10.9C36.5,14.6,31.2,10.4,24.4,10.4z"/>
	<path class="st1" d="M0,48.5v4h12v-9.9H6C2.7,42.6,0,45.2,0,48.5z"/>
</g>
<g>
	<path class="st1" d="M37.1,39.7c-4.8,2.7-12.3,2.9-12.3,2.9l9.4,9.9h15.2L37.1,39.7z"/>
</g>
<path class="st2" d="M48.1,21.2C48.1,8.5,38.8,0,24.6,0H0v42.6v6c0-3.3,2.7-6,6-6h6h12.6h0.3c0,0,7.4-0.2,12.3-2.9l0,0
	C43.9,36.1,48.1,29.5,48.1,21.2z M24.4,32.1H12V10.4h12.4c6.8,0,12.2,4.1,12.2,10.7C36.5,27.7,31.2,32.1,24.4,32.1z"/>
</svg>
